<mxfile>
    <diagram id="9srZeF_2K8dzy4UU1tZs" name="Page-1">
        <mxGraphModel dx="809" dy="525" grid="1" gridSize="10" guides="1" tooltips="1" connect="1" arrows="1" fold="1" page="1" pageScale="1" pageWidth="1169" pageHeight="827" math="0" shadow="0">
            <root>
                <mxCell id="0"/>
                <mxCell id="1" parent="0"/>
                <mxCell id="BAJVRnPTz2S0GVdr2Hog-14" value="" style="rounded=0;whiteSpace=wrap;html=1;glass=0;dashed=1;labelBackgroundColor=#ffffff;fillColor=none;" parent="1" vertex="1">
                    <mxGeometry x="40" y="40" width="680" height="280" as="geometry"/>
                </mxCell>
                <mxCell id="BAJVRnPTz2S0GVdr2Hog-6" value="FORK" style="edgeStyle=none;rounded=0;orthogonalLoop=1;jettySize=auto;html=1;" parent="1" source="BAJVRnPTz2S0GVdr2Hog-1" target="BAJVRnPTz2S0GVdr2Hog-2" edge="1">
                    <mxGeometry relative="1" as="geometry"/>
                </mxCell>
                <mxCell id="BAJVRnPTz2S0GVdr2Hog-7" value="CONTINUE" style="edgeStyle=none;rounded=0;orthogonalLoop=1;jettySize=auto;html=1;" parent="1" source="BAJVRnPTz2S0GVdr2Hog-1" target="BAJVRnPTz2S0GVdr2Hog-3" edge="1">
                    <mxGeometry relative="1" as="geometry"/>
                </mxCell>
                <mxCell id="BAJVRnPTz2S0GVdr2Hog-1" value="S1&lt;br&gt;T = 1" style="ellipse;whiteSpace=wrap;html=1;" parent="1" vertex="1">
                    <mxGeometry x="80" y="200" width="120" height="80" as="geometry"/>
                </mxCell>
                <mxCell id="BAJVRnPTz2S0GVdr2Hog-10" value="JOIN" style="edgeStyle=none;rounded=0;orthogonalLoop=1;jettySize=auto;html=1;" parent="1" source="BAJVRnPTz2S0GVdr2Hog-2" target="BAJVRnPTz2S0GVdr2Hog-8" edge="1">
                    <mxGeometry relative="1" as="geometry"/>
                </mxCell>
                <mxCell id="BAJVRnPTz2S0GVdr2Hog-2" value="S2&lt;br&gt;T = 10" style="ellipse;whiteSpace=wrap;html=1;" parent="1" vertex="1">
                    <mxGeometry x="320" y="80" width="120" height="80" as="geometry"/>
                </mxCell>
                <mxCell id="BAJVRnPTz2S0GVdr2Hog-9" value="CONTINUE" style="edgeStyle=none;rounded=0;orthogonalLoop=1;jettySize=auto;html=1;" parent="1" source="BAJVRnPTz2S0GVdr2Hog-3" target="BAJVRnPTz2S0GVdr2Hog-8" edge="1">
                    <mxGeometry relative="1" as="geometry"/>
                </mxCell>
                <mxCell id="BAJVRnPTz2S0GVdr2Hog-3" value="S3&lt;br&gt;T = 10" style="ellipse;whiteSpace=wrap;html=1;" parent="1" vertex="1">
                    <mxGeometry x="320" y="200" width="120" height="80" as="geometry"/>
                </mxCell>
                <mxCell id="BAJVRnPTz2S0GVdr2Hog-8" value="S4&lt;br&gt;T = 1" style="ellipse;whiteSpace=wrap;html=1;" parent="1" vertex="1">
                    <mxGeometry x="560" y="200" width="120" height="80" as="geometry"/>
                </mxCell>
                <mxCell id="BAJVRnPTz2S0GVdr2Hog-12" value="T = TIME" style="text;html=1;align=left;verticalAlign=middle;resizable=0;points=[];autosize=1;" parent="1" vertex="1">
                    <mxGeometry x="80" y="80" width="60" height="20" as="geometry"/>
                </mxCell>
                <mxCell id="BAJVRnPTz2S0GVdr2Hog-17" value="WORK: Sum of&amp;nbsp; the execution time of all the nodes" style="text;html=1;align=left;verticalAlign=middle;resizable=0;points=[];autosize=1;" parent="1" vertex="1">
                    <mxGeometry x="40" y="360" width="290" height="20" as="geometry"/>
                </mxCell>
                <mxCell id="BAJVRnPTz2S0GVdr2Hog-18" value="SPAN: Length of the longest path" style="text;html=1;align=left;verticalAlign=middle;resizable=0;points=[];autosize=1;" parent="1" vertex="1">
                    <mxGeometry x="40" y="380" width="190" height="20" as="geometry"/>
                </mxCell>
                <mxCell id="BAJVRnPTz2S0GVdr2Hog-20" value="WORK = 22" style="text;html=1;align=left;verticalAlign=middle;resizable=0;points=[];autosize=1;" parent="1" vertex="1">
                    <mxGeometry x="80" y="120" width="80" height="20" as="geometry"/>
                </mxCell>
                <mxCell id="BAJVRnPTz2S0GVdr2Hog-21" value="SPAN = 12" style="text;html=1;align=left;verticalAlign=middle;resizable=0;points=[];autosize=1;" parent="1" vertex="1">
                    <mxGeometry x="80" y="100" width="70" height="20" as="geometry"/>
                </mxCell>
                <mxCell id="BAJVRnPTz2S0GVdr2Hog-22" value="IDEAL PARALLELISM = WORK / SPAN" style="text;html=1;align=left;verticalAlign=middle;resizable=0;points=[];autosize=1;" parent="1" vertex="1">
                    <mxGeometry x="40" y="400" width="230" height="20" as="geometry"/>
                </mxCell>
                <mxCell id="BAJVRnPTz2S0GVdr2Hog-23" value="&lt;u&gt;Computation Graphs&lt;/u&gt;" style="text;html=1;align=center;verticalAlign=middle;resizable=0;points=[];autosize=1;horizontal=1;" parent="1" vertex="1">
                    <mxGeometry x="315" y="40" width="130" height="20" as="geometry"/>
                </mxCell>
                <mxCell id="BAJVRnPTz2S0GVdr2Hog-24" value="S = STEP" style="text;html=1;align=left;verticalAlign=middle;resizable=0;points=[];autosize=1;" parent="1" vertex="1">
                    <mxGeometry x="80" y="60" width="70" height="20" as="geometry"/>
                </mxCell>
                <mxCell id="BAJVRnPTz2S0GVdr2Hog-25" value="DATA RACE: Occurs when two steps run in parallel and both read and write the same location." style="text;html=1;align=left;verticalAlign=middle;resizable=0;points=[];autosize=1;" parent="1" vertex="1">
                    <mxGeometry x="40" y="420" width="520" height="20" as="geometry"/>
                </mxCell>
                <mxCell id="2" value="IDEAL PARALLELISM = 1.83" style="text;html=1;align=left;verticalAlign=middle;resizable=0;points=[];autosize=1;" vertex="1" parent="1">
                    <mxGeometry x="80" y="140" width="170" height="20" as="geometry"/>
                </mxCell>
            </root>
        </mxGraphModel>
    </diagram>
</mxfile>